<svg xmlns="http://www.w3.org/2000/svg" viewBox="0 0 120 190"><defs><style>.cls-1{fill:#231f20;}</style></defs><g id="Layer_2" data-name="Layer 2"><g id="icons"><rect class="cls-1" x="10" y="10" width="10" height="10"/><rect class="cls-1" width="10" height="10"/><rect class="cls-1" y="10" width="10" height="10"/><rect class="cls-1" y="20" width="10" height="10"/><rect class="cls-1" y="30" width="10" height="10"/><rect class="cls-1" y="40" width="10" height="10"/><rect class="cls-1" y="50" width="10" height="10"/><rect class="cls-1" y="60" width="10" height="10"/><rect class="cls-1" y="70" width="10" height="10"/><rect class="cls-1" y="80" width="10" height="10"/><rect class="cls-1" y="90" width="10" height="10"/><rect class="cls-1" y="100" width="10" height="10"/><rect class="cls-1" y="110" width="10" height="10"/><rect class="cls-1" y="120" width="10" height="10"/><rect class="cls-1" y="130" width="10" height="10"/><rect class="cls-1" y="140" width="10" height="10"/><rect class="cls-1" y="150" width="10" height="10"/><rect class="cls-1" x="20" y="20" width="10" height="10"/><rect class="cls-1" x="30" y="30" width="10" height="10"/><rect class="cls-1" x="40" y="40" width="10" height="10"/><rect class="cls-1" x="50" y="50" width="10" height="10"/><rect class="cls-1" x="60" y="60" width="10" height="10"/><rect class="cls-1" x="70" y="70" width="10" height="10"/><rect class="cls-1" x="80" y="80" width="10" height="10"/><rect class="cls-1" x="90" y="90" width="10" height="10"/><rect class="cls-1" x="100" y="100" width="10" height="10"/><rect class="cls-1" x="110" y="110" width="10" height="10"/><rect class="cls-1" x="110" y="120" width="10" height="10"/><rect class="cls-1" x="100" y="120" width="10" height="10"/><rect class="cls-1" x="90" y="120" width="10" height="10"/><rect class="cls-1" x="80" y="120" width="10" height="10"/><rect class="cls-1" x="70" y="120" width="10" height="10"/><rect class="cls-1" x="70" y="130" width="10" height="10"/><rect class="cls-1" x="80" y="140" width="10" height="10"/><rect class="cls-1" x="80" y="150" width="10" height="10"/><rect class="cls-1" x="90" y="160" width="10" height="10"/><rect class="cls-1" x="90" y="170" width="10" height="10"/><rect class="cls-1" x="60" y="160" width="10" height="10"/><rect class="cls-1" x="60" y="170" width="10" height="10"/><rect class="cls-1" x="50" y="140" width="10" height="10"/><rect class="cls-1" x="40" y="130" width="10" height="10"/><rect class="cls-1" x="30" y="140" width="10" height="10"/><rect class="cls-1" x="20" y="150" width="10" height="10"/><rect class="cls-1" x="10" y="160" width="10" height="10"/><rect class="cls-1" y="160" width="10" height="10"/><rect class="cls-1" x="50" y="150" width="10" height="10"/><rect class="cls-1" x="80" y="180" width="10" height="10"/><rect class="cls-1" x="70" y="180" width="10" height="10"/></g></g></svg>