<svg xmlns="http://www.w3.org/2000/svg" viewBox="0 0 170 230"><defs><style>.cls-1{fill:#231f20;}</style></defs><g id="Layer_2" data-name="Layer 2"><g id="icons"><rect class="cls-1" x="50" width="10" height="10"/><rect class="cls-1" x="60" width="10" height="10"/><rect class="cls-1" x="70" y="10" width="10" height="10"/><rect class="cls-1" x="70" y="30" width="10" height="10"/><rect class="cls-1" x="70" y="40" width="10" height="10"/><rect class="cls-1" x="70" y="50" width="10" height="10"/><rect class="cls-1" x="70" y="60" width="10" height="10"/><rect class="cls-1" x="70" y="70" width="10" height="10"/><rect class="cls-1" x="70" y="80" width="10" height="10"/><rect class="cls-1" x="70" y="90" width="10" height="10"/><rect class="cls-1" x="70" y="100" width="10" height="10"/><rect class="cls-1" x="80" y="50" width="10" height="10"/><rect class="cls-1" x="90" y="50" width="10" height="10"/><rect class="cls-1" x="110" y="60" width="10" height="10"/><rect class="cls-1" x="120" y="60" width="10" height="10"/><rect class="cls-1" x="100" y="60" width="10" height="10"/><rect class="cls-1" x="100" y="70" width="10" height="10"/><rect class="cls-1" x="100" y="80" width="10" height="10"/><rect class="cls-1" x="100" y="90" width="10" height="10"/><rect class="cls-1" x="140" y="70" width="10" height="10"/><rect class="cls-1" x="150" y="80" width="10" height="10"/><rect class="cls-1" x="160" y="90" width="10" height="10"/><rect class="cls-1" x="160" y="100" width="10" height="10"/><rect class="cls-1" x="160" y="110" width="10" height="10"/><rect class="cls-1" x="160" y="120" width="10" height="10"/><rect class="cls-1" x="160" y="130" width="10" height="10"/><rect class="cls-1" x="160" y="140" width="10" height="10"/><rect class="cls-1" x="160" y="150" width="10" height="10"/><rect class="cls-1" x="160" y="160" width="10" height="10"/><rect class="cls-1" x="130" y="70" width="10" height="10"/><rect class="cls-1" x="130" y="80" width="10" height="10"/><rect class="cls-1" x="130" y="90" width="10" height="10"/><rect class="cls-1" x="130" y="100" width="10" height="10"/><rect class="cls-1" x="130" y="110" width="10" height="10"/><rect class="cls-1" x="100" y="100" width="10" height="10"/><rect class="cls-1" x="40" y="10" width="10" height="10"/><rect class="cls-1" x="40" y="30" width="10" height="10"/><rect class="cls-1" x="70" y="20" width="10" height="10"/><rect class="cls-1" x="40" y="20" width="10" height="10"/><rect class="cls-1" x="40" y="40" width="10" height="10"/><rect class="cls-1" x="40" y="50" width="10" height="10"/><rect class="cls-1" x="40" y="60" width="10" height="10"/><rect class="cls-1" x="40" y="70" width="10" height="10"/><rect class="cls-1" x="40" y="80" width="10" height="10"/><rect class="cls-1" x="40" y="90" width="10" height="10"/><rect class="cls-1" x="40" y="100" width="10" height="10"/><rect class="cls-1" x="40" y="110" width="10" height="10"/><rect class="cls-1" x="40" y="120" width="10" height="10"/><rect class="cls-1" x="30" y="110" width="10" height="10"/><rect class="cls-1" x="20" y="100" width="10" height="10"/><rect class="cls-1" x="10" y="100" width="10" height="10"/><rect class="cls-1" y="100" width="10" height="10"/><rect class="cls-1" y="110" width="10" height="10"/><rect class="cls-1" y="120" width="10" height="10"/><rect class="cls-1" x="10" y="130" width="10" height="10"/><rect class="cls-1" x="20" y="140" width="10" height="10"/><rect class="cls-1" x="20" y="150" width="10" height="10"/><rect class="cls-1" x="30" y="160" width="10" height="10"/><rect class="cls-1" x="30" y="170" width="10" height="10"/><rect class="cls-1" x="40" y="180" width="10" height="10"/><rect class="cls-1" x="40" y="190" width="10" height="10"/><rect class="cls-1" x="50" y="200" width="10" height="10"/><rect class="cls-1" x="50" y="210" width="10" height="10"/><rect class="cls-1" x="140" y="200" width="10" height="10"/><rect class="cls-1" x="140" y="210" width="10" height="10"/><rect class="cls-1" x="50" y="220" width="10" height="10"/><rect class="cls-1" x="60" y="220" width="10" height="10"/><rect class="cls-1" x="70" y="220" width="10" height="10"/><rect class="cls-1" x="80" y="220" width="10" height="10"/><rect class="cls-1" x="90" y="220" width="10" height="10"/><rect class="cls-1" x="100" y="220" width="10" height="10"/><rect class="cls-1" x="110" y="220" width="10" height="10"/><rect class="cls-1" x="120" y="220" width="10" height="10"/><rect class="cls-1" x="130" y="220" width="10" height="10"/><rect class="cls-1" x="140" y="220" width="10" height="10"/><rect class="cls-1" x="150" y="170" width="10" height="10"/><rect class="cls-1" x="150" y="180" width="10" height="10"/><rect class="cls-1" x="150" y="190" width="10" height="10"/></g></g></svg>